<svg width="21" height="21" viewBox="0 0 21 21" fill="none" xmlns="http://www.w3.org/2000/svg">
<path d="M1.382 9.505V14.563C1.38187 15.2272 1.51257 15.8849 1.76665 16.4985C2.02073 17.1122 2.39321 17.6698 2.86281 18.1395C3.33241 18.6092 3.88993 18.9818 4.50354 19.236C5.11715 19.4902 5.77482 19.621 6.439 19.621H10.116C10.7802 19.621 11.4379 19.4902 12.0515 19.236C12.6651 18.9818 13.2226 18.6092 13.6922 18.1395C14.1618 17.6698 14.5343 17.1122 14.7883 16.4985C15.0424 15.8849 15.1731 15.2272 15.173 14.563V9.506L1.382 9.505ZM11.887 1.16C12.0273 1.27749 12.1152 1.4459 12.1313 1.62819C12.1474 1.81047 12.0905 1.9917 11.973 2.132C11.331 2.897 11.189 3.419 11.387 3.769C11.449 3.878 11.98 4.717 12.102 4.976C12.378 5.561 12.414 6.128 12.176 6.798C12.001 7.27921 11.7472 7.72799 11.425 8.126H15.306C15.743 8.142 16.06 8.253 16.256 8.461C16.366 8.575 16.444 8.719 16.493 8.893L16.553 8.891C17.4676 8.891 18.3447 9.25432 18.9915 9.90104C19.6382 10.5478 20.0015 11.4249 20.0015 12.3395C20.0015 13.2541 19.6382 14.1312 18.9915 14.778C18.3447 15.4247 17.4676 15.788 16.553 15.788L16.437 15.784C16.1532 17.2521 15.3672 18.5756 14.214 19.5273C13.0608 20.4791 11.6122 20.9998 10.117 21H6.438C5.59273 21 4.75573 20.8335 3.97482 20.51C3.1939 20.1865 2.48436 19.7123 1.88671 19.1146C1.28906 18.5168 0.815005 17.8072 0.491624 17.0263C0.168244 16.2453 0.00186854 15.4083 0.00199988 14.563V9.337C-0.0180001 8.904 0.0639999 8.597 0.246 8.417C0.429 8.237 0.699 8.14 1.055 8.127H4.008C4.04646 8.0629 4.0951 8.00548 4.152 7.957C4.762 7.44 5.16 6.9 5.36 6.337C5.474 6.017 5.461 5.827 5.338 5.566C5.26 5.4 4.769 4.624 4.671 4.45C4.132 3.498 4.429 2.406 5.399 1.248C5.45604 1.1751 5.52717 1.11442 5.60815 1.06958C5.68913 1.02474 5.7783 0.996648 5.87036 0.986983C5.96242 0.977318 6.05549 0.986275 6.14401 1.01332C6.23254 1.04037 6.31472 1.08495 6.38566 1.14441C6.4566 1.20388 6.51485 1.27701 6.55694 1.35945C6.59904 1.44189 6.62411 1.53196 6.63067 1.62429C6.63724 1.71662 6.62515 1.80933 6.59515 1.8969C6.56514 1.98447 6.51782 2.0651 6.456 2.134C5.814 2.899 5.673 3.421 5.871 3.771C5.932 3.88 6.464 4.719 6.586 4.978C6.861 5.563 6.898 6.13 6.659 6.8C6.48426 7.28114 6.23081 7.72992 5.909 8.128H6.767C6.80546 8.0639 6.8541 8.00648 6.911 7.958C7.52 7.44 7.918 6.9 8.118 6.337C8.232 6.017 8.22 5.827 8.096 5.566C8.018 5.4 7.527 4.624 7.429 4.45C6.89 3.498 7.187 2.406 8.158 1.248C8.21456 1.17372 8.2856 1.11168 8.36683 1.06566C8.44805 1.01963 8.53778 0.990564 8.63057 0.980222C8.72335 0.969881 8.81728 0.978477 8.90664 1.00549C8.99601 1.03251 9.07897 1.07737 9.15049 1.13738C9.22202 1.19739 9.28062 1.27129 9.32275 1.35461C9.36488 1.43792 9.38966 1.52892 9.3956 1.6221C9.40154 1.71527 9.3885 1.80868 9.35729 1.89667C9.32607 1.98466 9.27733 2.0654 9.214 2.134C8.573 2.899 8.431 3.421 8.629 3.771C8.691 3.88 9.222 4.719 9.344 4.978C9.62 5.563 9.656 6.13 9.417 6.8C9.24226 7.28114 8.98881 7.72992 8.667 8.128H9.526C9.56416 8.06397 9.61245 8.00656 9.669 7.958C10.279 7.44 10.676 6.9 10.876 6.337C10.99 6.017 10.978 5.827 10.854 5.566C10.776 5.4 10.286 4.624 10.187 4.45C9.649 3.498 9.945 2.406 10.916 1.248C11.0335 1.108 11.2017 1.02032 11.3837 1.00419C11.5658 0.988069 11.7468 1.04482 11.887 1.162V1.16ZM16.552 10.27V14.408C17.1007 14.408 17.627 14.19 18.015 13.802C18.403 13.414 18.621 12.8877 18.621 12.339C18.621 11.7903 18.403 11.264 18.015 10.876C17.627 10.488 17.1007 10.27 16.552 10.27V10.27Z" fill="#EDD9A3"/>
</svg>
